<?xml version="1.0" encoding="iso-8859-1"?>
<!-- Generator: Adobe Illustrator 18.0.0, SVG Export Plug-In . SVG Version: 6.00 Build 0)  -->
<!DOCTYPE svg PUBLIC "-//W3C//DTD SVG 1.1//EN" "http://www.w3.org/Graphics/SVG/1.1/DTD/svg11.dtd">
<svg version="1.1" id="Capa_1" xmlns="http://www.w3.org/2000/svg" xmlns:xlink="http://www.w3.org/1999/xlink" x="0px" y="0px"
	 viewBox="0 0 494.914 494.914" style="enable-background:new 0 0 494.914 494.914;" xml:space="preserve">
<g>
	<path d="M285.813,266.034v36.483c91.16,9.032,145.408,40.674,145.408,64.427c0,27.993-75.088,67.024-197.362,67.024
		S36.514,394.937,36.514,366.944c0-23.93,54.996-55.856,147.32-64.635v-36.466C87.701,274.843,0,309.59,0,366.944
		c0,67.247,120.488,103.54,233.858,103.54c113.369,0,233.877-36.293,233.877-103.54
		C467.735,309.972,381.194,275.321,285.813,266.034z"/>
	<path d="M486.869,40.363c-2.789-1.752-5.959-2.63-9.145-2.63c-2.551,0-5.098,0.558-7.472,1.704l-30.271,14.689
		c-14.084,6.836-29.346,10.245-44.593,10.245c-16.123,0-32.214-3.808-46.919-11.392c-14.673-7.568-30.699-11.327-46.695-11.327
		c-16.728,0-33.441,4.095-48.592,12.252V42.8c0-10.149-8.236-18.37-18.369-18.37c-10.133,0-18.354,8.221-18.354,18.37v328.94
		c0,10.133,8.221,18.354,18.354,18.354c10.133,0,18.369-8.221,18.369-18.354V203.853c15.15-8.157,31.88-12.268,48.607-12.268
		c15.996,0,32.007,3.76,46.68,11.326c14.705,7.584,30.796,11.393,46.902,11.393c15.247,0,30.51-3.41,44.609-10.244l45.245-21.953
		c5.927-2.868,9.686-8.859,9.686-15.438V54.908C494.914,48.981,491.855,43.485,486.869,40.363z"/>
</g>
<g>
</g>
<g>
</g>
<g>
</g>
<g>
</g>
<g>
</g>
<g>
</g>
<g>
</g>
<g>
</g>
<g>
</g>
<g>
</g>
<g>
</g>
<g>
</g>
<g>
</g>
<g>
</g>
<g>
</g>
</svg>
