<?xml version="1.0" encoding="iso-8859-1"?>
<!-- Generator: Adobe Illustrator 19.0.0, SVG Export Plug-In . SVG Version: 6.00 Build 0)  -->
<svg version="1.1" id="Capa_1" xmlns="http://www.w3.org/2000/svg" xmlns:xlink="http://www.w3.org/1999/xlink" x="0px" y="0px"
	 viewBox="0 0 502.642 502.642" style="enable-background:new 0 0 502.642 502.642;" xml:space="preserve">
<g>
	<g>
		<g>
			<path style="fill:#010002;" d="M251.386,0c-0.065,0-0.065,0-0.065,0C155.849,0.475,78.496,77.978,78.496,173.537
				c0,85.075,58.867,135.206,107.962,201.536c42.947,57.961,58.155,111.65,63.03,127.57h3.602
				c4.961-15.919,20.233-69.652,63.095-127.57c49.095-66.33,107.962-116.439,107.962-201.536C424.146,77.978,346.88,0.475,251.386,0
				z M365.754,176.384H329.3c-2.071,10.721-6.212,20.686-12.123,29.401l25.712,25.712l-21.312,21.355l-25.734-25.734
				c-8.715,5.91-18.68,10.03-29.401,12.101v36.476h-30.199v-36.498c-10.721-2.071-20.665-6.212-29.379-12.123l-25.777,25.756
				l-21.29-21.355l25.712-25.691c-5.91-8.715-10.052-18.68-12.101-29.401h-36.541v-30.178h36.541
				c2.049-10.721,6.191-20.686,12.08-29.401l-25.712-25.712l21.29-21.398l25.756,25.777c8.715-5.91,18.68-10.052,29.401-12.123
				V46.852h30.199v36.476c10.721,2.071,20.686,6.212,29.401,12.101l25.734-25.756l21.312,21.398l-25.712,25.691
				c5.91,8.715,10.052,18.702,12.123,29.401h36.455v30.221H365.754z"/>
			<circle style="fill:#010002;" cx="251.343" cy="161.285" r="29.832"/>
		</g>
	</g>
	<g>
	</g>
	<g>
	</g>
	<g>
	</g>
	<g>
	</g>
	<g>
	</g>
	<g>
	</g>
	<g>
	</g>
	<g>
	</g>
	<g>
	</g>
	<g>
	</g>
	<g>
	</g>
	<g>
	</g>
	<g>
	</g>
	<g>
	</g>
	<g>
	</g>
</g>
<g>
</g>
<g>
</g>
<g>
</g>
<g>
</g>
<g>
</g>
<g>
</g>
<g>
</g>
<g>
</g>
<g>
</g>
<g>
</g>
<g>
</g>
<g>
</g>
<g>
</g>
<g>
</g>
<g>
</g>
</svg>
